<svg id="happy" xmlns="http://www.w3.org/2000/svg" width="40" height="40" viewBox="0 0 40 40">
  <defs>
    <style>
      .cls-1 {
        fill: #fff;
      }
    </style>
  </defs>
  <g id="Group_528" data-name="Group 528">
    <g id="Group_527" data-name="Group 527">
      <path id="Path_5636" data-name="Path 5636" class="cls-1" d="M227,112a3,3,0,1,0,3,3A3,3,0,0,0,227,112Zm0,4a1,1,0,1,1,1-1A1,1,0,0,1,227,116Z" transform="translate(-200.2 -100.1)"/>
      <path id="Path_5637" data-name="Path 5637" class="cls-1" d="M99,118a3,3,0,1,0-3-3A3,3,0,0,0,99,118Zm0-4a1,1,0,1,1-1,1A1,1,0,0,1,99,114Z" transform="translate(-85.8 -100.1)"/>
      <path id="Path_5638" data-name="Path 5638" class="cls-1" d="M20,0A20,20,0,1,0,40,20,20.022,20.022,0,0,0,20,0Zm0,38.261A18.261,18.261,0,1,1,38.261,20,18.281,18.281,0,0,1,20,38.261Z"/>
      <path id="Path_5639" data-name="Path 5639" class="cls-1" d="M117,208H97a1,1,0,0,0-1,1,11,11,0,0,0,22,0A1,1,0,0,0,117,208Zm-10,10a9.012,9.012,0,0,1-8.944-8h17.888A9.012,9.012,0,0,1,107,218Z" transform="translate(-87 -186.588)"/>
    </g>
  </g>
</svg>
