<svg xmlns="http://www.w3.org/2000/svg" width="18.138" height="18.139" viewBox="0 0 18.138 18.139">
    <defs>
        <style>
            .cls-1{fill:#fff}
        </style>
    </defs>
    <g id="resume" transform="translate(-.007)">
        <g id="Group_3807" transform="translate(.007)">
            <g id="Group_3806">
                <path id="Path_7176" d="M14.674 5.27a.354.354 0 0 0 .354-.354V1.063A1.064 1.064 0 0 0 13.965 0H1.07A1.064 1.064 0 0 0 .007 1.063v16.013a1.064 1.064 0 0 0 1.063 1.063h12.9a1.064 1.064 0 0 0 1.063-1.063v-2.61a.354.354 0 1 0-.709 0v2.61a.355.355 0 0 1-.354.354H1.07a.355.355 0 0 1-.354-.354V1.063A.355.355 0 0 1 1.07.709h12.9a.355.355 0 0 1 .354.354v3.853a.354.354 0 0 0 .35.354z" class="cls-1" transform="translate(-.007)"/>
            </g>
        </g>
        <g id="Group_3809" transform="translate(4.258 1.913)">
            <g id="Group_3808">
                <path id="Path_7177" d="M123.266 54a3.258 3.258 0 0 0-2.236 5.628.351.351 0 0 0 .038.035 3.253 3.253 0 0 0 4.4 0 .354.354 0 0 0 .038-.035 3.258 3.258 0 0 0-2.24-5.628zm0 5.81a2.537 2.537 0 0 1-1.541-.52 1.771 1.771 0 0 1 3.082 0 2.537 2.537 0 0 1-1.541.52zm-.567-2.692v-.23a.567.567 0 1 1 1.134 0v.23a.567.567 0 1 1-1.134 0zm2.62 1.654a2.458 2.458 0 0 0-1.044-.875 1.269 1.269 0 0 0 .267-.779v-.23a1.275 1.275 0 1 0-2.551 0v.23a1.269 1.269 0 0 0 .267.779 2.458 2.458 0 0 0-1.044.875 2.551 2.551 0 1 1 4.105 0z" class="cls-1" transform="translate(-120.007 -54)"/>
            </g>
        </g>
        <g id="Group_3811" transform="translate(7.163 15.517)">
            <g id="Group_3810">
                <path id="Path_7178" d="M204.274 438h-1.913a.354.354 0 1 0 0 .709h1.913a.354.354 0 1 0 0-.709z" class="cls-1" transform="translate(-202.007 -438)"/>
            </g>
        </g>
        <g id="Group_3813" transform="translate(4.046 13.533)">
            <g id="Group_3812">
                <path id="Path_7179" d="M119.392 382h-5.031a.354.354 0 0 0 0 .709h5.031a.354.354 0 1 0 0-.709z" class="cls-1" transform="translate(-114.007 -382)"/>
            </g>
        </g>
        <g id="Group_3815" transform="translate(4.046 11.549)">
            <g id="Group_3814">
                <path id="Path_7180" d="M119.392 326h-5.031a.354.354 0 1 0 0 .709h5.031a.354.354 0 1 0 0-.709z" class="cls-1" transform="translate(-114.007 -326)"/>
            </g>
        </g>
        <g id="Group_3817" transform="translate(2.532 9.565)">
            <g id="Group_3816">
                <path id="Path_7181" d="M71.892 270.1a.354.354 0 1 0 .1.25.357.357 0 0 0-.1-.25z" class="cls-1" transform="translate(-71.287 -270)"/>
            </g>
        </g>
        <g id="Group_3819" transform="translate(2.532 11.549)">
            <g id="Group_3818">
                <path id="Path_7182" d="M71.892 326.1a.354.354 0 1 0 .1.25.358.358 0 0 0-.1-.25z" class="cls-1" transform="translate(-71.287 -326)"/>
            </g>
        </g>
        <g id="Group_3821" transform="translate(2.532 13.533)">
            <g id="Group_3820">
                <path id="Path_7183" d="M71.892 382.1a.354.354 0 1 0 .1.25.358.358 0 0 0-.1-.25z" class="cls-1" transform="translate(-71.287 -382)"/>
            </g>
        </g>
        <g id="Group_3823" transform="translate(4.046 9.565)">
            <g id="Group_3822">
                <path id="Path_7184" d="M119.392 270h-5.031a.354.354 0 0 0 0 .709h5.031a.354.354 0 0 0 0-.709z" class="cls-1" transform="translate(-114.007 -270)"/>
            </g>
        </g>
        <g id="Group_3825" transform="translate(10.55 4.417)">
            <g id="Group_3824">
                <path id="Path_7185" d="M304.441 124.875a1.488 1.488 0 0 0-2.033.545l-4.458 7.722a.356.356 0 0 0-.045.138l-.314 2.811a.354.354 0 0 0 .562.325l2.277-1.677a.354.354 0 0 0 .1-.108l4.458-7.722a1.49 1.49 0 0 0-.547-2.034zm-6.056 10.489l.164-1.468 1.025.592zm1.706-1.4l-1.35-.779 3.578-6.2 1.35.779zm4.281-7.415l-.349.6-1.35-.779.349-.6a.779.779 0 0 1 1.35.779z" class="cls-1" transform="translate(-297.589 -124.675)"/>
            </g>
        </g>
    </g>
</svg>
