<svg id="sad_1_" data-name="sad (1)" xmlns="http://www.w3.org/2000/svg" width="40" height="40" viewBox="0 0 40 40">
  <defs>
    <style>
      .cls-1 {
        fill: #fff;
      }
    </style>
  </defs>
  <g id="Group_530" data-name="Group 530">
    <g id="Group_529" data-name="Group 529">
      <path id="Path_5640" data-name="Path 5640" class="cls-1" d="M112.907,224a11.651,11.651,0,0,0-8.678,3.859.89.89,0,1,0,1.327,1.188,9.907,9.907,0,0,1,14.7,0,.89.89,0,1,0,1.327-1.188A11.651,11.651,0,0,0,112.907,224Z" transform="translate(-92.907 -199.74)"/>
      <path id="Path_5641" data-name="Path 5641" class="cls-1" d="M20,0A20,20,0,1,0,40,20,20.022,20.022,0,0,0,20,0Zm0,38.261A18.261,18.261,0,1,1,38.261,20,18.281,18.281,0,0,1,20,38.261Z"/>
      <path id="Path_5642" data-name="Path 5642" class="cls-1" d="M216.014,128a.89.89,0,0,0-.891.89,2.671,2.671,0,1,1-5.343,0,.89.89,0,1,0-1.781,0,4.452,4.452,0,1,0,8.9,0A.89.89,0,0,0,216.014,128Z" transform="translate(-185.542 -114.137)"/>
      <path id="Path_5643" data-name="Path 5643" class="cls-1" d="M88.9,128.89a.89.89,0,1,0-1.781,0,2.671,2.671,0,1,1-5.343,0,.89.89,0,1,0-1.781,0,4.452,4.452,0,1,0,8.9,0Z" transform="translate(-71.362 -114.137)"/>
    </g>
  </g>
</svg>
