<svg id="sad" xmlns="http://www.w3.org/2000/svg" width="40" height="40" viewBox="0 0 40 40">
  <defs>
    <style>
      .cls-1 {
        fill: #fff;
      }
    </style>
  </defs>
  <g id="Group_522" data-name="Group 522">
    <g id="Group_521" data-name="Group 521">
      <path id="Path_5624" data-name="Path 5624" class="cls-1" d="M20,0A20,20,0,1,0,40,20,20.023,20.023,0,0,0,20,0Zm0,38.261A18.261,18.261,0,1,1,38.261,20,18.281,18.281,0,0,1,20,38.261Z"/>
      <path id="Path_5625" data-name="Path 5625" class="cls-1" d="M101.217,130.609a2.609,2.609,0,1,0-2.609,2.609A2.612,2.612,0,0,0,101.217,130.609Zm-3.478,0a.87.87,0,1,1,.87.87A.871.871,0,0,1,97.739,130.609Z" transform="translate(-85.565 -114.087)"/>
      <path id="Path_5626" data-name="Path 5626" class="cls-1" d="M226.609,128a2.609,2.609,0,1,0,2.609,2.609A2.612,2.612,0,0,0,226.609,128Zm0,3.478a.87.87,0,1,1,.87-.87A.87.87,0,0,1,226.609,131.478Z" transform="translate(-199.652 -114.087)"/>
      <path id="Path_5627" data-name="Path 5627" class="cls-1" d="M112.7,224a11.376,11.376,0,0,0-8.474,3.768.87.87,0,0,0,1.3,1.16,9.674,9.674,0,0,1,14.357,0,.87.87,0,0,0,1.3-1.16A11.378,11.378,0,0,0,112.7,224Z" transform="translate(-92.698 -199.652)"/>
    </g>
  </g>
</svg>
