<svg id="smile" xmlns="http://www.w3.org/2000/svg" width="40" height="40" viewBox="0 0 40 40">
  <defs>
    <style>
      .cls-1 {
        fill: #fff;
      }
    </style>
  </defs>
  <g id="Group_526" data-name="Group 526">
    <g id="Group_525" data-name="Group 525">
      <path id="Path_5632" data-name="Path 5632" class="cls-1" d="M20,0A20,20,0,1,0,40,20,20.023,20.023,0,0,0,20,0Zm0,38.261A18.261,18.261,0,1,1,38.261,20,18.281,18.281,0,0,1,20,38.261Z"/>
      <path id="Path_5633" data-name="Path 5633" class="cls-1" d="M101.217,130.609a2.609,2.609,0,1,0-2.609,2.609A2.612,2.612,0,0,0,101.217,130.609Zm-3.478,0a.87.87,0,1,1,.87.87A.871.871,0,0,1,97.739,130.609Z" transform="translate(-85.565 -114.087)"/>
      <path id="Path_5634" data-name="Path 5634" class="cls-1" d="M226.609,128a2.609,2.609,0,1,0,2.609,2.609A2.612,2.612,0,0,0,226.609,128Zm0,3.478a.87.87,0,1,1,.87-.87A.871.871,0,0,1,226.609,131.478Z" transform="translate(-199.652 -114.087)"/>
      <path id="Path_5635" data-name="Path 5635" class="cls-1" d="M121.1,224.221a.869.869,0,0,0-1.228.068,9.674,9.674,0,0,1-14.357,0,.87.87,0,0,0-1.3,1.16,11.413,11.413,0,0,0,16.948,0A.87.87,0,0,0,121.1,224.221Z" transform="translate(-92.696 -199.652)"/>
    </g>
  </g>
</svg>
