<svg xmlns="http://www.w3.org/2000/svg" width="55.741" height="59.39" viewBox="0 0 55.741 59.39">
  <defs>
    <style>
      .cls-1 {
        fill: #33a22a;
        stroke: #fff;
      }
    </style>
  </defs>
  <g id="submit_2_" data-name="submit (2)" transform="translate(0.5 0.5)">
    <path id="Path_5979" data-name="Path 5979" class="cls-1" d="M120,332h10.264v3.421H120Zm0,0" transform="translate(-106.315 -294.138)"/>
    <path id="Path_5980" data-name="Path 5980" class="cls-1" d="M120,271h27.37v3.421H120Zm0,0" transform="translate(-106.315 -240.094)"/>
    <path id="Path_5981" data-name="Path 5981" class="cls-1" d="M120,211h27.37v3.421H120Zm0,0" transform="translate(-106.315 -186.937)"/>
    <path id="Path_5982" data-name="Path 5982" class="cls-1" d="M120,150h27.37v3.421H120Zm0,0" transform="translate(-106.315 -132.894)"/>
    <path id="Path_5983" data-name="Path 5983" class="cls-1" d="M240,90h10.264v3.421H240Zm0,0" transform="translate(-212.63 -79.736)"/>
    <path id="Path_5984" data-name="Path 5984" class="cls-1" d="M54.74,41.284H47.9V0H18.108L6.842,11.266V41.284H0V58.39H54.74ZM51.319,44.7v3.421H47.9V44.7Zm-6.843,3.421H10.264V13.685H20.528V3.421H44.477ZM12.683,10.264l4.423-4.423v4.423ZM6.842,44.7v3.421H3.421V44.7ZM3.421,54.969V51.547h47.9v3.421Zm0,0" transform="translate(0)"/>
  </g>
</svg>
